<mxfile host="app.diagrams.net" modified="2023-02-22T03:11:02.538Z" agent="5.0 (Windows NT 10.0; Win64; x64) AppleWebKit/537.36 (KHTML, like Gecko) Chrome/110.0.0.0 Safari/537.36" etag="XXc6WYn1CCM9F3XyU0DV" version="20.8.22" type="github">
  <diagram name="Page-1" id="74e2e168-ea6b-b213-b513-2b3c1d86103e">
    <mxGraphModel dx="880" dy="482" grid="1" gridSize="10" guides="1" tooltips="1" connect="1" arrows="1" fold="1" page="1" pageScale="1" pageWidth="1100" pageHeight="850" background="none" math="0" shadow="0">
      <root>
        <mxCell id="0" />
        <mxCell id="1" parent="0" />
        <mxCell id="77e6c97f196da883-1" value="Pool" style="swimlane;html=1;childLayout=stackLayout;startSize=20;rounded=0;shadow=0;labelBackgroundColor=none;strokeWidth=1;fontFamily=Verdana;fontSize=8;align=center;" parent="1" vertex="1">
          <mxGeometry x="110" y="40" width="1100" height="750" as="geometry" />
        </mxCell>
        <mxCell id="77e6c97f196da883-2" value="客户" style="swimlane;html=1;startSize=20;" parent="77e6c97f196da883-1" vertex="1">
          <mxGeometry y="20" width="140" height="730" as="geometry" />
        </mxCell>
        <mxCell id="Dy6EHot-L7qjvz_FSaC0-1" value="开始" style="ellipse;whiteSpace=wrap;html=1;" vertex="1" parent="77e6c97f196da883-2">
          <mxGeometry x="40" y="28" width="75" height="40" as="geometry" />
        </mxCell>
        <mxCell id="Dy6EHot-L7qjvz_FSaC0-24" value="订单需求" style="whiteSpace=wrap;html=1;" vertex="1" parent="77e6c97f196da883-2">
          <mxGeometry x="38.75" y="85" width="77.5" height="40" as="geometry" />
        </mxCell>
        <mxCell id="Dy6EHot-L7qjvz_FSaC0-5" style="edgeStyle=orthogonalEdgeStyle;rounded=0;orthogonalLoop=1;jettySize=auto;html=1;exitX=0.5;exitY=1;exitDx=0;exitDy=0;entryX=0.5;entryY=0;entryDx=0;entryDy=0;" edge="1" parent="77e6c97f196da883-2" source="Dy6EHot-L7qjvz_FSaC0-1" target="Dy6EHot-L7qjvz_FSaC0-24">
          <mxGeometry relative="1" as="geometry" />
        </mxCell>
        <mxCell id="Dy6EHot-L7qjvz_FSaC0-28" value="客户需求" style="whiteSpace=wrap;html=1;" vertex="1" parent="77e6c97f196da883-2">
          <mxGeometry x="37.5" y="206" width="77.5" height="40" as="geometry" />
        </mxCell>
        <mxCell id="77e6c97f196da883-3" value="市场部" style="swimlane;html=1;startSize=20;" parent="77e6c97f196da883-1" vertex="1">
          <mxGeometry x="140" y="20" width="160" height="730" as="geometry" />
        </mxCell>
        <mxCell id="Dy6EHot-L7qjvz_FSaC0-9" style="edgeStyle=orthogonalEdgeStyle;rounded=0;orthogonalLoop=1;jettySize=auto;html=1;exitX=0.5;exitY=1;exitDx=0;exitDy=0;" edge="1" parent="77e6c97f196da883-3" source="Dy6EHot-L7qjvz_FSaC0-3" target="Dy6EHot-L7qjvz_FSaC0-6">
          <mxGeometry relative="1" as="geometry" />
        </mxCell>
        <mxCell id="Dy6EHot-L7qjvz_FSaC0-3" value="询价" style="whiteSpace=wrap;html=1;" vertex="1" parent="77e6c97f196da883-3">
          <mxGeometry x="41.25" y="85" width="77.5" height="40" as="geometry" />
        </mxCell>
        <mxCell id="Dy6EHot-L7qjvz_FSaC0-6" value="内部询价" style="whiteSpace=wrap;html=1;" vertex="1" parent="77e6c97f196da883-3">
          <mxGeometry x="42" y="145" width="77.5" height="40" as="geometry" />
        </mxCell>
        <mxCell id="Dy6EHot-L7qjvz_FSaC0-15" value="获得客户报价" style="whiteSpace=wrap;html=1;" vertex="1" parent="77e6c97f196da883-3">
          <mxGeometry x="41.25" y="206" width="77.5" height="40" as="geometry" />
        </mxCell>
        <mxCell id="Dy6EHot-L7qjvz_FSaC0-23" value="制DR单" style="whiteSpace=wrap;html=1;" vertex="1" parent="77e6c97f196da883-3">
          <mxGeometry x="41.25" y="266" width="77.5" height="40" as="geometry" />
        </mxCell>
        <mxCell id="Dy6EHot-L7qjvz_FSaC0-31" value="SAP销售订单" style="whiteSpace=wrap;html=1;" vertex="1" parent="77e6c97f196da883-3">
          <mxGeometry x="41.25" y="334" width="77.5" height="40" as="geometry" />
        </mxCell>
        <mxCell id="Dy6EHot-L7qjvz_FSaC0-32" style="edgeStyle=orthogonalEdgeStyle;rounded=0;orthogonalLoop=1;jettySize=auto;html=1;exitX=0.5;exitY=1;exitDx=0;exitDy=0;" edge="1" parent="77e6c97f196da883-3" source="Dy6EHot-L7qjvz_FSaC0-23" target="Dy6EHot-L7qjvz_FSaC0-31">
          <mxGeometry relative="1" as="geometry" />
        </mxCell>
        <mxCell id="77e6c97f196da883-4" value="报价中心" style="swimlane;html=1;startSize=20;" parent="77e6c97f196da883-1" vertex="1">
          <mxGeometry x="300" y="20" width="160" height="730" as="geometry" />
        </mxCell>
        <mxCell id="Dy6EHot-L7qjvz_FSaC0-11" style="edgeStyle=orthogonalEdgeStyle;rounded=0;orthogonalLoop=1;jettySize=auto;html=1;exitX=0.5;exitY=1;exitDx=0;exitDy=0;" edge="1" parent="77e6c97f196da883-4" source="Dy6EHot-L7qjvz_FSaC0-7" target="Dy6EHot-L7qjvz_FSaC0-8">
          <mxGeometry relative="1" as="geometry" />
        </mxCell>
        <mxCell id="Dy6EHot-L7qjvz_FSaC0-7" value="报价管理" style="whiteSpace=wrap;html=1;" vertex="1" parent="77e6c97f196da883-4">
          <mxGeometry x="20" y="145" width="77.5" height="40" as="geometry" />
        </mxCell>
        <mxCell id="Dy6EHot-L7qjvz_FSaC0-8" value="报价" style="whiteSpace=wrap;html=1;" vertex="1" parent="77e6c97f196da883-4">
          <mxGeometry x="20" y="206" width="77.5" height="40" as="geometry" />
        </mxCell>
        <mxCell id="77e6c97f196da883-5" value="PMC" style="swimlane;html=1;startSize=20;" parent="77e6c97f196da883-1" vertex="1">
          <mxGeometry x="460" y="20" width="160" height="730" as="geometry" />
        </mxCell>
        <mxCell id="Dy6EHot-L7qjvz_FSaC0-38" style="edgeStyle=orthogonalEdgeStyle;rounded=0;orthogonalLoop=1;jettySize=auto;html=1;exitX=0.5;exitY=1;exitDx=0;exitDy=0;" edge="1" parent="77e6c97f196da883-5" source="Dy6EHot-L7qjvz_FSaC0-33" target="Dy6EHot-L7qjvz_FSaC0-37">
          <mxGeometry relative="1" as="geometry" />
        </mxCell>
        <mxCell id="Dy6EHot-L7qjvz_FSaC0-33" value="执行物料计划" style="whiteSpace=wrap;html=1;" vertex="1" parent="77e6c97f196da883-5">
          <mxGeometry x="33" y="249" width="77.5" height="40" as="geometry" />
        </mxCell>
        <mxCell id="Dy6EHot-L7qjvz_FSaC0-36" value="生产计划" style="whiteSpace=wrap;html=1;" vertex="1" parent="77e6c97f196da883-5">
          <mxGeometry x="32" y="410" width="77.5" height="40" as="geometry" />
        </mxCell>
        <mxCell id="Dy6EHot-L7qjvz_FSaC0-39" style="edgeStyle=orthogonalEdgeStyle;rounded=0;orthogonalLoop=1;jettySize=auto;html=1;exitX=0.5;exitY=1;exitDx=0;exitDy=0;" edge="1" parent="77e6c97f196da883-5" source="Dy6EHot-L7qjvz_FSaC0-37" target="Dy6EHot-L7qjvz_FSaC0-36">
          <mxGeometry relative="1" as="geometry" />
        </mxCell>
        <mxCell id="Dy6EHot-L7qjvz_FSaC0-37" value="物料满足" style="rhombus;whiteSpace=wrap;html=1;" vertex="1" parent="77e6c97f196da883-5">
          <mxGeometry x="37" y="318" width="68" height="60" as="geometry" />
        </mxCell>
        <mxCell id="Dy6EHot-L7qjvz_FSaC0-45" value="分图推送" style="whiteSpace=wrap;html=1;" vertex="1" parent="77e6c97f196da883-5">
          <mxGeometry x="32" y="490" width="77.5" height="40" as="geometry" />
        </mxCell>
        <mxCell id="77e6c97f196da883-6" value="采购部" style="swimlane;html=1;startSize=20;" parent="77e6c97f196da883-1" vertex="1">
          <mxGeometry x="620" y="20" width="160" height="730" as="geometry" />
        </mxCell>
        <mxCell id="Dy6EHot-L7qjvz_FSaC0-40" value="物料采购" style="whiteSpace=wrap;html=1;" vertex="1" parent="77e6c97f196da883-6">
          <mxGeometry x="40.25" y="328" width="77.5" height="40" as="geometry" />
        </mxCell>
        <mxCell id="77e6c97f196da883-7" value="工艺部" style="swimlane;html=1;startSize=20;" parent="77e6c97f196da883-1" vertex="1">
          <mxGeometry x="780" y="20" width="160" height="730" as="geometry" />
        </mxCell>
        <mxCell id="Dy6EHot-L7qjvz_FSaC0-10" style="edgeStyle=orthogonalEdgeStyle;rounded=0;orthogonalLoop=1;jettySize=auto;html=1;exitX=1;exitY=0.5;exitDx=0;exitDy=0;" edge="1" parent="77e6c97f196da883-1" source="Dy6EHot-L7qjvz_FSaC0-6" target="Dy6EHot-L7qjvz_FSaC0-7">
          <mxGeometry relative="1" as="geometry" />
        </mxCell>
        <mxCell id="Dy6EHot-L7qjvz_FSaC0-16" style="edgeStyle=orthogonalEdgeStyle;rounded=0;orthogonalLoop=1;jettySize=auto;html=1;exitX=0;exitY=0.5;exitDx=0;exitDy=0;" edge="1" parent="77e6c97f196da883-1" source="Dy6EHot-L7qjvz_FSaC0-8" target="Dy6EHot-L7qjvz_FSaC0-15">
          <mxGeometry relative="1" as="geometry" />
        </mxCell>
        <mxCell id="Dy6EHot-L7qjvz_FSaC0-26" style="edgeStyle=orthogonalEdgeStyle;rounded=0;orthogonalLoop=1;jettySize=auto;html=1;exitX=1;exitY=0.5;exitDx=0;exitDy=0;entryX=0;entryY=0.5;entryDx=0;entryDy=0;" edge="1" parent="77e6c97f196da883-1" source="Dy6EHot-L7qjvz_FSaC0-24" target="Dy6EHot-L7qjvz_FSaC0-3">
          <mxGeometry relative="1" as="geometry" />
        </mxCell>
        <mxCell id="Dy6EHot-L7qjvz_FSaC0-29" style="edgeStyle=orthogonalEdgeStyle;rounded=0;orthogonalLoop=1;jettySize=auto;html=1;exitX=0;exitY=0.5;exitDx=0;exitDy=0;entryX=1;entryY=0.5;entryDx=0;entryDy=0;" edge="1" parent="77e6c97f196da883-1" source="Dy6EHot-L7qjvz_FSaC0-15" target="Dy6EHot-L7qjvz_FSaC0-28">
          <mxGeometry relative="1" as="geometry" />
        </mxCell>
        <mxCell id="Dy6EHot-L7qjvz_FSaC0-30" style="edgeStyle=orthogonalEdgeStyle;rounded=0;orthogonalLoop=1;jettySize=auto;html=1;exitX=0.5;exitY=1;exitDx=0;exitDy=0;entryX=0;entryY=0.5;entryDx=0;entryDy=0;" edge="1" parent="77e6c97f196da883-1" source="Dy6EHot-L7qjvz_FSaC0-28" target="Dy6EHot-L7qjvz_FSaC0-23">
          <mxGeometry relative="1" as="geometry" />
        </mxCell>
        <mxCell id="Dy6EHot-L7qjvz_FSaC0-41" style="edgeStyle=orthogonalEdgeStyle;rounded=0;orthogonalLoop=1;jettySize=auto;html=1;exitX=1;exitY=0.5;exitDx=0;exitDy=0;entryX=0;entryY=0.5;entryDx=0;entryDy=0;" edge="1" parent="77e6c97f196da883-1" source="Dy6EHot-L7qjvz_FSaC0-37" target="Dy6EHot-L7qjvz_FSaC0-40">
          <mxGeometry relative="1" as="geometry" />
        </mxCell>
        <mxCell id="Dy6EHot-L7qjvz_FSaC0-42" value="装配部" style="swimlane;html=1;startSize=20;" vertex="1" parent="77e6c97f196da883-1">
          <mxGeometry x="940" y="20" width="160" height="730" as="geometry" />
        </mxCell>
        <mxCell id="Dy6EHot-L7qjvz_FSaC0-44" style="edgeStyle=orthogonalEdgeStyle;rounded=0;orthogonalLoop=1;jettySize=auto;html=1;exitX=1;exitY=0.5;exitDx=0;exitDy=0;entryX=0;entryY=0.5;entryDx=0;entryDy=0;" edge="1" parent="77e6c97f196da883-1" source="Dy6EHot-L7qjvz_FSaC0-31" target="Dy6EHot-L7qjvz_FSaC0-33">
          <mxGeometry relative="1" as="geometry" />
        </mxCell>
      </root>
    </mxGraphModel>
  </diagram>
</mxfile>
